<svg width="26" height="37" viewBox="0 0 26 37" fill="none" xmlns="http://www.w3.org/2000/svg">
<path fill-rule="evenodd" clip-rule="evenodd" d="M5.82192 17.3311C6.20025 20.7646 9.11081 23.4356 12.6452 23.4356C16.1801 23.4356 19.0909 20.764 19.4686 17.3297L21.485 7.64893C23.8384 9.93883 25.3002 13.1404 25.3002 16.6834C25.3002 25.6865 12.6958 36.9405 12.6958 36.9405C12.6958 36.9405 0.0913239 25.6865 0.0913239 16.6834C0.0913239 13.1808 1.51999 10.0118 3.82638 7.72757L5.82192 17.3311Z" fill="black"/>
<path d="M15.6504 5.98021L12.6906 0.201019L9.73076 5.98021L5.29102 3.09061L7.3259 12.8003C7.3259 12.8003 9.04219 9.51353 12.6906 9.51353C16.339 9.51353 17.9628 12.8003 17.9628 12.8003L20.0902 3.09061L15.6504 5.98021Z" fill="#F6BB11"/>
<circle cx="12.6979" cy="16.6497" r="4.05423" transform="rotate(82.9518 12.6979 16.6497)" fill="black"/>
</svg>
